<?xml version="1.0" encoding="UTF-8" standalone="no"?>
<!DOCTYPE svg PUBLIC "-//W3C//DTD SVG 1.1//EN" "http://www.w3.org/Graphics/SVG/1.1/DTD/svg11.dtd">
<!-- Created with Vectornator (http://vectornator.io/) -->
<svg height="100%" stroke-miterlimit="10" style="fill-rule:nonzero;clip-rule:evenodd;stroke-linecap:round;stroke-linejoin:round;" version="1.1" viewBox="0 0 30 20" width="100%" xml:space="preserve" xmlns="http://www.w3.org/2000/svg" xmlns:xlink="http://www.w3.org/1999/xlink">
<defs/>
<g id="图层-1">
<g opacity="1">
<path d="M15.9375 4.25C15.1709 4.26153 14.2392 4.3843 13.5312 4.5C11.998 4.75057 10.4946 5.14328 9 5.5625C6.91313 6.14786 4.84348 6.8031 2.8125 7.5625C2.59233 7.49508 2.29502 7.79679 2.15625 8.25C2.01748 8.70321 2.09232 9.12008 2.3125 9.1875C4.29184 8.42146 6.30819 7.75384 8.34375 7.15625C9.78401 6.73343 11.2393 6.35515 12.7188 6.09375C13.3656 5.97947 14.2566 5.83315 14.9688 5.8125C15.4463 5.79865 15.6324 5.8377 16.0938 5.90625C18.5192 6.26664 16.175 8.75061 15.5 9.5C15.3475 9.66935 15.1865 9.83315 15.0312 10C14.8693 10.174 14.7259 10.3274 14.5625 10.5C14.3933 10.6787 14.1999 10.8832 14.0312 11.0625C13.6935 11.4217 13.3608 11.7582 13.0312 12.125C12.7082 12.4845 12.3927 12.8389 12.0938 13.2188C11.7297 13.6813 11.261 14.3092 11 14.875C10.4045 16.1655 10.8647 17.3567 12.4062 17.3125C14.0884 17.2643 15.8251 16.1658 17.1875 15.3125C17.7643 14.9512 18.4128 14.5156 18.9688 14.125C20.1753 13.2774 21.3492 12.3592 22.5 11.4375C24.2021 10.0742 25.8647 8.6655 27.4688 7.1875C27.539 7.12909 27.4952 6.95715 27.375 6.8125C27.2548 6.66785 27.1015 6.59784 27.0312 6.65625C25.4671 8.07124 23.8456 9.44711 22.1875 10.75C21.0817 11.6189 19.971 12.4523 18.8125 13.25C18.0107 13.8021 17.193 14.3356 16.3438 14.8125C15.4399 15.32 14.3262 15.9849 13.25 16C12.2221 16.0144 11.9015 15.1048 12.4375 14.3125C12.6269 14.0326 12.8192 13.7632 13.0312 13.5C13.5112 12.9041 14.2951 12.1021 14.8125 11.5625C15.3251 11.0278 15.8431 10.4836 16.3438 9.9375C16.6762 9.57485 17.0041 9.22732 17.3125 8.84375C18.3398 7.56598 20.014 4.80391 17.25 4.34375C16.7445 4.2596 16.461 4.24213 15.9375 4.25Z" fill="#000000" stroke="none"/>
</g>
<g opacity="1">
<path d="M14.0625 8.375C13.7917 8.11617 13.2905 8.19326 12.9375 8.5625C12.5845 8.93174 12.5105 9.45992 12.7812 9.71875C12.9916 9.85574 12.8268 9.73097 13 9.84375C12.9312 9.79895 13.15 9.9552 13.2188 10C13.2699 10.0333 13.3238 10.0604 13.375 10.0938C14.0598 10.5397 14.9002 11.0963 14.6562 10.9375C14.8145 11.0405 14.9668 11.147 15.125 11.25C15.3198 11.3769 15.9136 11.7519 15.7188 11.625C15.3632 11.3935 15.7276 11.6329 16.5312 12.1562C16.6841 12.3024 16.957 12.2397 17.1562 12.0312C17.3555 11.8228 17.4029 11.5211 17.25 11.375C16.5743 10.7344 16.8474 11.0201 16.5625 10.75C16.3979 10.5939 16.2271 10.4373 16.0625 10.2812C15.9257 10.1516 15.7931 10.0047 15.6562 9.875C15.3517 9.58633 15.0545 9.28867 14.75 9C14.6462 8.90163 14.5413 8.81712 14.4375 8.71875C14.3789 8.66324 14.1914 8.50699 14.25 8.5625C14.7168 9.00505 14.2539 8.55645 14.0625 8.375Z" fill="#000000" stroke="none"/>
</g>
</g>
</svg>
