<svg height="35" viewBox="0 0 50 35" width="50" xmlns="http://www.w3.org/2000/svg">
    <g opacity="1">
<path d="M27.9062 4C26.4975 3.92572 25.0369 4.12737 24 4.28125C23.4791 4.35855 22.9545 4.43142 22.4375 4.53125C15.6966 5.83277 9.45073 8.57444 2.96875 10.6875C2.52183 10.6619 2.13718 11.273 2.09375 12.0312C2.05032 12.7895 2.36558 13.4119 2.8125 13.4375C6.17 11.5774 10.1204 10.3378 13.75 9.15625C15.8516 8.47209 17.9714 7.84374 20.125 7.34375C21.5577 7.01114 22.9758 6.72602 24.4375 6.5625C25.1981 6.47741 25.9861 6.47698 26.75 6.53125C27.1948 6.56285 27.6352 6.61866 28.0625 6.75C31.2216 7.72094 28.5513 11.4023 27.4375 12.9062C27.1827 13.2503 26.9531 13.5387 26.6875 13.875C26.2854 14.3842 25.8088 14.9546 25.4062 15.4375C25.1094 15.7936 24.8311 16.1464 24.5312 16.5C23.9226 17.2178 23.292 17.9349 22.6875 18.6562C22.0911 19.3679 21.5051 20.0776 20.9375 20.8125C20.026 21.9927 19.1234 23.2463 18.4688 24.5938C17.442 26.7071 17.2842 29.7935 20.3438 30.125C20.7563 30.1697 21.152 30.151 21.5625 30.0938C23.0476 29.8865 24.4708 29.2307 25.7812 28.5312C27.7246 27.4941 29.5558 26.2316 31.3125 24.9062C33.8085 23.0232 36.1909 21.0414 38.5312 18.9688C41.8979 15.9872 45.1772 12.8817 48.3125 9.65625C48.4916 9.43895 48.3374 9.02262 47.9688 8.71875C47.6001 8.41488 47.1791 8.3452 47 8.5625C44.178 11.4597 41.2274 14.2359 38.2188 16.9375C35.7438 19.1599 33.1887 21.2804 30.5312 23.2812C29.1574 24.3156 27.7121 25.3017 26.2188 26.1562C24.9902 26.8593 23.521 27.6819 22.0625 27.7188C19.8898 27.7737 20.0182 25.6169 20.8438 24.25C21.204 23.6535 21.5657 23.0372 21.9688 22.4688C22.6968 21.4418 23.5028 20.4934 24.3125 19.5312C25.2202 18.4526 26.158 17.3626 27.0625 16.2812C28.8537 14.1398 30.8691 11.8457 31.7812 9.15625C32.2009 7.91895 32.3386 6.41514 31.4375 5.34375C30.6566 4.4153 29.315 4.07428 27.9062 4Z" fill="#ffffff" stroke="none"/>
</g>
<g opacity="1">
<path d="M22.9062 12.3125C22.6161 12.3757 22.3177 12.5472 22.0312 12.8125C21.4584 13.3431 21.2498 14.0374 21.5625 14.375C24.8176 17.0448 25.4217 17.5544 24.8125 17.0312C23.8813 16.2315 22.9949 15.3958 22.0938 14.5625C21.9801 14.4574 22.3185 14.7448 22.4375 14.8438C22.6762 15.0423 22.828 15.1756 23.0625 15.375C23.9489 16.1286 24.8407 16.893 25.7188 17.6562C26.0485 17.9429 27.0478 18.7784 26.6875 18.5312C26.0253 18.0769 26.7042 18.5341 28.0625 19.7188C28.3041 19.9796 28.87 19.8474 29.3125 19.4375C29.755 19.0276 29.8978 18.4796 29.6562 18.2188C26.6371 15.3304 25.7476 14.5134 26.6562 15.3438C27.242 15.8789 27.7899 16.4343 28.3125 17.0312C28.5999 17.3595 27.6676 16.4486 27.3438 16.1562C27.0767 15.9152 26.829 15.6791 26.5625 15.4375C25.9693 14.8998 25.3696 14.3555 24.7812 13.8125C24.5563 13.6049 24.412 13.4619 24.1875 13.25C24.0757 13.1445 23.7265 12.838 23.8438 12.9375C24.7822 13.734 23.8454 12.9169 23.625 12.4375C23.4686 12.2687 23.1964 12.2493 22.9062 12.3125Z" fill="#ffffff" stroke="none"/>
</g>
</svg>